<svg width="1000" height="1000" viewBox="0 0 1000 1000" fill="none" xmlns="http://www.w3.org/2000/svg">
<circle cx="500" cy="500" r="498.5" stroke="white" stroke-width="3"/>
<path d="M353.63 236.535C345.859 228.934 326.698 228.338 326.698 228.338L388.759 228.338V457.846H361.826V252.928C361.826 245.77 358.747 241.54 353.63 236.535Z" fill="white"/>
<path d="M489.461 439.111C467.213 440.282 430.913 440.282 430.913 440.282H388.759V437.94C388.759 437.94 469.575 437.94 474.239 437.94C478.902 437.94 483.623 437.043 489.461 435.598C502.763 432.306 509.743 427.395 521.077 420.375C533.734 412.536 540.785 406.91 549.18 394.614C556.459 383.952 558.987 376.708 562.061 364.169C565.443 350.372 565.354 342.043 564.403 327.87C563.562 315.341 562.778 308.076 558.548 296.254C550.629 274.123 541.49 261.743 522.248 248.244C508.483 238.588 494.671 230.68 476.581 230.68C441.452 230.678 388.759 230.68 388.759 230.68V228.338L482.435 228.338C491.803 228.338 511.996 232.5 529.274 240.048C550.318 249.241 563.408 255.706 577.283 274.005C588.675 289.029 593.002 299.89 596.019 318.502C598.067 331.141 598.144 338.662 596.019 351.289C592.958 369.467 588.368 379.886 577.283 394.614C563.09 413.473 549.941 420.789 528.103 429.743C513.736 435.634 504.967 438.295 489.461 439.111Z" fill="white"/>
<path d="M282.201 457.846L361.826 457.846H388.759C388.759 457.846 388.132 511.796 388.759 514.052C394.613 535.129 544.496 843.635 544.496 843.635L612.659 687.469L614.754 689.696L530.445 882.905L358.314 523.42C358.314 523.42 343.635 491.303 326.698 477.752C311.833 465.86 282.201 457.846 282.201 457.846Z" fill="white"/>
<path d="M647.541 714.286C633.429 706.736 625.761 701.315 614.754 689.696C593.677 667.448 583.351 651.908 566.744 625.293C555.694 607.583 551.013 596.763 540.983 578.455C529.972 558.354 524.878 546.461 512.88 526.933C504.25 512.884 500.014 504.472 489.461 491.804C473.905 473.129 464.234 461.943 442.623 450.82C432.201 445.456 414.52 440.282 414.52 440.282L430.913 440.282C430.913 440.282 480.093 455.504 512.88 485.949C527.825 499.826 535.916 506.527 546.838 524.591C577.283 574.942 625.293 658.08 625.293 658.08C625.293 658.08 669.789 558.549 694.379 494.146C698.403 483.607 695.325 477.117 694.379 473.069C693.433 469.02 690.866 466.043 688.294 463.102C684.77 459.073 675.644 459.017 675.644 459.017H734.192C734.192 459.017 725.815 460.809 721.311 463.701C716.958 466.496 714.108 469.113 710.773 473.069C705.211 479.665 703.669 483.889 700.234 491.804C673.302 553.865 626.463 661.593 626.463 661.593L654.567 694.38C654.567 694.38 668.406 708.197 679.157 714.286C689.355 720.063 695.884 722.002 707.26 724.825C715.797 726.943 729.508 728.338 729.508 728.338C729.508 728.338 704.324 730.896 688.524 728.338C671.822 725.634 662.459 722.268 647.541 714.286Z" fill="white"/>
<path d="M360.656 638.174C361.826 605.387 361.826 552.694 361.826 552.694L388.759 604.216V638.174C388.759 645.139 391.107 649.406 395.784 654.567C403.166 662.714 422.716 662.764 422.716 662.764H326.698C326.698 662.764 345.017 662.055 352.459 654.567C357.505 649.491 360.4 645.327 360.656 638.174Z" fill="white"/>
</svg>
